<?xml version="1.0" standalone="no"?>
<!DOCTYPE svg PUBLIC "-//W3C//DTD SVG 20010904//EN"
 "http://www.w3.org/TR/2001/REC-SVG-20010904/DTD/svg10.dtd">
<svg version="1.0" xmlns="http://www.w3.org/2000/svg"
 width="800.000000pt" height="800.000000pt" viewBox="0 0 800.000000 800.000000"
 preserveAspectRatio="xMidYMid meet">
<metadata>
Created by potrace 1.11, written by Peter Selinger 2001-2013
</metadata>
<g transform="translate(0.000000,800.000000) scale(0.100000,-0.100000)"
fill="#000000" stroke="none">
<path d="M4985 7991 c-126 -32 -243 -140 -318 -291 -72 -148 -91 -240 -92
-450 0 -141 4 -189 19 -244 60 -223 175 -380 334 -458 61 -30 74 -33 162 -33
114 0 162 18 241 92 99 92 165 214 210 388 20 78 24 114 24 265 0 152 -3 186
-23 260 -37 137 -102 259 -182 344 -94 98 -157 130 -265 133 -44 1 -93 -2
-110 -6z"/>
<path d="M2889 7962 c-81 -22 -133 -56 -209 -139 -142 -155 -218 -409 -207
-688 11 -257 82 -443 217 -569 226 -211 558 -87 705 264 127 300 104 680 -54
922 -120 184 -277 257 -452 210z"/>
<path d="M6102 7525 c-78 -22 -111 -42 -173 -106 -65 -67 -121 -172 -143 -269
-20 -84 -20 -249 -1 -325 35 -135 120 -257 215 -306 64 -34 186 -34 249 0 175
92 291 348 261 572 -27 198 -121 359 -244 419 -60 28 -101 32 -164 15z"/>
<path d="M1813 7482 c-70 -25 -121 -62 -166 -120 -104 -136 -142 -328 -102
-517 30 -144 133 -288 243 -342 108 -53 240 -25 336 70 54 54 120 187 135 271
16 85 13 220 -5 296 -32 139 -119 273 -211 327 -60 35 -157 41 -230 15z"/>
<path d="M1020 7123 c-46 -16 -113 -70 -144 -116 -56 -82 -79 -157 -80 -267
-1 -154 38 -267 129 -367 120 -134 279 -137 375 -6 52 70 72 138 78 254 10
227 -75 421 -213 485 -47 22 -110 30 -145 17z"/>
<path d="M6845 7101 c-58 -26 -131 -110 -173 -199 -34 -72 -37 -84 -40 -188
-5 -127 7 -196 47 -280 88 -186 239 -228 374 -104 100 92 157 237 157 404 0
145 -25 225 -92 302 -68 78 -185 106 -273 65z"/>
<path d="M487 6638 c-123 -26 -183 -172 -143 -349 38 -173 137 -292 259 -314
79 -15 183 56 206 142 16 56 13 182 -5 244 -34 115 -106 217 -181 258 -36 19
-97 28 -136 19z"/>
<path d="M7477 6599 c-57 -13 -95 -36 -155 -93 -92 -87 -140 -216 -130 -349 6
-71 32 -128 78 -172 43 -41 102 -40 191 2 106 50 184 147 225 282 20 66 18
167 -5 216 -22 47 -74 99 -114 114 -32 12 -38 12 -90 0z"/>
<path d="M167 6102 c-173 -115 -120 -495 75 -537 90 -20 187 108 188 251 1
188 -154 357 -263 286z"/>
<path d="M2400 6079 c-193 -13 -490 -83 -784 -185 -715 -249 -1194 -655 -1379
-1170 -57 -160 -72 -261 -71 -489 0 -184 4 -227 27 -346 64 -328 176 -623 348
-915 29 -49 161 -251 294 -449 261 -390 364 -563 455 -762 106 -232 167 -435
215 -708 14 -82 36 -186 47 -230 103 -389 397 -706 739 -796 107 -28 272 -34
394 -16 207 32 455 125 589 221 176 126 294 322 338 561 14 73 18 418 6 430
-4 4 -22 -2 -40 -13 -64 -39 -225 -102 -328 -127 -126 -31 -353 -44 -466 -26
-176 27 -381 109 -532 214 -169 116 -345 314 -479 538 -202 341 -221 595 -62
807 52 69 176 166 294 232 86 47 98 58 135 117 23 36 40 66 38 68 -2 1 -46 24
-98 50 -244 122 -432 298 -549 515 -83 154 -143 351 -175 570 -26 175 -39 478
-26 599 29 279 132 545 266 690 l62 66 88 3 c69 3 110 -2 184 -21 351 -91 819
-345 1278 -695 l32 -24 31 68 c55 121 80 242 80 386 0 134 -3 162 -28 273 -93
405 -409 598 -923 564z"/>
<path d="M5324 6080 c-183 -16 -359 -85 -466 -180 -245 -219 -322 -697 -167
-1038 16 -36 31 -68 33 -70 3 -2 50 30 105 72 227 172 600 399 830 505 294
135 548 192 647 145 72 -35 192 -222 253 -397 63 -181 75 -267 75 -527 -1
-479 -86 -827 -267 -1095 -59 -87 -207 -235 -295 -297 -42 -29 -125 -78 -184
-108 l-107 -55 42 -67 c32 -53 52 -73 92 -94 110 -58 245 -156 302 -218 161
-176 182 -370 70 -646 -85 -208 -211 -398 -374 -563 -178 -181 -374 -298 -600
-360 -112 -30 -127 -31 -298 -31 -162 0 -191 2 -288 27 -105 26 -230 73 -328
123 l-49 24 -6 -25 c-3 -14 -4 -109 -2 -212 6 -216 28 -322 93 -456 120 -242
313 -384 652 -481 220 -62 423 -72 592 -27 218 58 426 214 566 426 114 173
161 298 210 565 44 241 56 294 106 447 107 330 209 517 584 1078 281 419 350
534 440 735 102 226 187 542 214 792 36 324 -33 645 -194 916 -124 208 -339
423 -575 577 -239 156 -429 245 -745 350 -393 131 -721 188 -961 165z"/>
<path d="M7715 6061 c-43 -26 -84 -77 -114 -141 -35 -77 -36 -202 -3 -275 46
-99 111 -138 181 -109 111 46 184 204 161 347 -25 155 -129 237 -225 178z"/>
</g>
</svg>
