<?xml version="1.0" standalone="no"?>
<!DOCTYPE svg PUBLIC "-//W3C//DTD SVG 20010904//EN"
 "http://www.w3.org/TR/2001/REC-SVG-20010904/DTD/svg10.dtd">
<svg version="1.0" xmlns="http://www.w3.org/2000/svg"
 width="512.000000pt" height="512.000000pt" viewBox="0 0 512.000000 512.000000"
 preserveAspectRatio="xMidYMid meet">
<metadata>
Created by potrace 1.11, written by Peter Selinger 2001-2013
</metadata>
<g transform="translate(0.000000,512.000000) scale(0.100000,-0.100000)"
fill="#000000" stroke="none">
<path d="M938 5055 c-52 -18 -82 -39 -114 -80 -94 -123 -50 -294 92 -356 199
-88 395 120 299 316 -50 104 -173 157 -277 120z"/>
<path d="M1467 5053 c-63 -18 -128 -82 -146 -143 -29 -97 -5 -187 67 -252 126
-113 336 -51 378 112 47 184 -115 338 -299 283z"/>
<path d="M2060 4825 c-77 -16 -118 -36 -170 -83 -46 -40 -96 -119 -104 -163
-3 -13 -5 -24 -6 -24 -1 0 -3 -27 -5 -61 -12 -248 242 -429 476 -338 114 44
195 142 217 264 29 159 -53 315 -201 382 -69 31 -134 39 -207 23z"/>
<path d="M425 4811 c-22 -10 -57 -36 -77 -59 -102 -113 -66 -291 75 -363 104
-54 249 -8 305 96 22 41 24 51 25 120 1 96 -50 173 -140 210 -49 21 -139 19
-188 -4z"/>
<path d="M1167 4424 c-1 -1 -31 -4 -67 -7 -36 -3 -74 -8 -85 -10 -76 -18 -152
-40 -168 -49 -10 -5 -27 -11 -37 -13 -10 -2 -60 -24 -112 -50 -339 -167 -533
-466 -576 -885 -9 -88 -8 -266 2 -365 50 -496 292 -1074 621 -1484 40 -51 181
-189 235 -230 30 -24 91 -60 135 -81 259 -125 521 -94 695 80 181 181 222 443
107 678 -63 129 -234 270 -363 297 -63 14 -170 92 -212 155 -88 132 -75 318
32 439 12 12 66 54 122 92 191 130 317 270 400 444 63 130 78 198 78 340 0 99
-4 131 -23 184 -51 146 -176 278 -339 360 -114 57 -217 85 -370 100 -40 4 -74
6 -75 5z"/>
<path d="M175 4401 c-90 -37 -87 -178 5 -215 99 -39 189 56 150 158 -19 50
-99 79 -155 57z"/>
<path d="M3620 3940 c-153 -27 -235 -195 -165 -337 83 -167 315 -171 411 -7
37 62 38 152 3 220 -44 86 -153 140 -249 124z"/>
<path d="M4121 3880 c-102 -34 -161 -114 -161 -220 0 -242 335 -323 439 -106
92 188 -82 393 -278 326z"/>
<path d="M2967 3755 c-101 -27 -186 -93 -231 -183 -45 -90 -49 -168 -15 -276
18 -54 33 -80 74 -122 176 -179 468 -131 574 96 22 47 26 69 25 145 0 75 -4
99 -26 145 -71 151 -244 235 -401 195z"/>
<path d="M4573 3604 c-85 -31 -152 -125 -153 -213 0 -71 20 -122 70 -171 70
-70 170 -90 257 -51 176 81 187 329 18 419 -58 31 -135 37 -192 16z"/>
<path d="M3794 3234 c-297 -52 -520 -212 -612 -439 -36 -92 -42 -242 -12 -359
65 -259 220 -458 502 -646 117 -77 174 -178 172 -305 -2 -87 -8 -116 -39 -171
-49 -88 -125 -147 -236 -184 -221 -74 -371 -243 -415 -465 -10 -50 -4 -186 10
-240 54 -204 213 -366 403 -411 68 -16 228 -13 301 6 125 33 253 103 347 191
22 21 51 48 65 61 129 119 307 380 430 627 114 228 228 550 256 721 2 14 7 36
10 50 33 139 47 400 31 570 -27 287 -144 545 -324 709 -240 220 -599 335 -889
285z"/>
<path d="M4870 3152 c-91 -45 -79 -181 17 -210 109 -33 193 77 133 173 -19 31
-62 55 -99 55 -9 0 -32 -8 -51 -18z"/>
</g>
</svg>
